<svg xmlns="http://www.w3.org/2000/svg" aria-hidden="true" style="position:absolute;width:0;height:0;overflow:hidden">
  <defs>
    <symbol id="icon-arrow" viewBox="0 0 32 32">
      <path d="M24.001 25.001h-13a.997.997 0 0 1-1-1 .997.997 0 0 1 1-1h10.586L7.293 8.709a1 1 0 1 1 1.414-1.414L23 21.589V11.003a.997.997 0 0 1 1-1 .997.997 0 0 1 1 1v13a.997.997 0 0 1-1 1z"/>
    </symbol>
    <symbol id="icon-circle" viewBox="0 0 32 32">
      <path fill="none" stroke="#5c5c5c" stroke-linecap="round" stroke-width="3.2" d="M19.452 3.119a13.272 13.272 0 0 1 5.976 3.453c5.207 5.207 5.207 13.649 0 18.856s-13.649 5.207-18.856 0c-5.207-5.207-5.207-13.649 0-18.856a13.27 13.27 0 0 1 5.976-3.453" style="stroke:var(--color1, #5c5c5c)"/>
    </symbol>
    <symbol id="icon-close" viewBox="0 0 32 32">
      <path fill="#fff" d="m8.532 25.333-1.867-1.867 7.467-7.467-7.467-7.467 1.867-1.867 7.467 7.467 7.467-7.467 1.867 1.867-7.467 7.467 7.467 7.467-1.867 1.867-7.467-7.467-7.467 7.467z" style="fill:var(--color2, #fff)"/>
    </symbol>
    <symbol id="icon-line" viewBox="0 0 196 32">
      <path fill="#8e5c6a" d="M195.001 20.969c-5.922 0-8.931-.075-11.843-.147a411.498 411.498 0 0 0-11.902-.148c-5.952 0-8.982.126-11.908.25-.278-.105-.587-.11-.84.035-2.673.11-5.642.213-10.998.213l-1.431-.002c.053-.29-.073-.589-.486-.766-3.449-1.473-6.969-2.826-10.418-4.299-.918-.392-1.8.388-1.366 1.145.734 1.28 1.538 2.53 2.296 3.8l-.441-.01c-2.924-.064-5.949-.131-11.897-.131-.552 0-.999.375-.999.837s.447.837.999.837c5.922 0 8.933.067 11.844.131 2.925.064 5.949.131 11.899.131 4.628 0 7.488-.077 9.907-.168-.534.967-1.067 1.935-1.603 2.902-.355.644.231 1.425 1.128 1.23 3.983-.868 7.926-1.911 11.365-3.857.278-.157.411-.373.442-.595a387.51 387.51 0 0 1 2.507-.008c5.922 0 8.931.075 11.843.147 2.926.073 5.951.148 11.902.148.553 0 .999-.375.999-.837s-.446-.837-.999-.837zM74.712 20.614c-6.113 0-9.221-.156-12.227-.306a209.986 209.986 0 0 0-11.434-.307c.401-1.305.535-2.661 1.047-3.945.328-.82-.983-1.371-1.669-.815-1.848 1.501-3.43 3.21-5.246 4.736-3.11-.03-5.228-.087-7.298-.143-3.028-.082-6.159-.167-12.319-.167-6.175 0-9.314.172-12.35.337-3.004.164-6.109.334-12.219.334-.552 0-.999.375-.999.837s.446.837.999.837c6.175 0 9.314-.172 12.35-.337 3.004-.164 6.109-.334 12.219-.334 6.128 0 9.242.085 12.254.165 2.131.058 4.316.116 7.569.146.128.001.259.003.389.003 1.274.01 2.705.017 4.359.017 5.01 0 8.001.105 10.571.225 2.184 1.639 4.31 3.332 6.495 4.97.603.452 1.754.176 1.704-.592-.075-1.147-.012-2.297-.087-3.444a.772.772 0 0 0-.371-.612c1.713.042 3.728.068 6.258.068.552 0 .999-.375.999-.837.002-.463-.444-.838-.997-.838zM115.617 10.685c-3.012.784-5.648 2.18-7.753 4.056.606-5.156-1.062-10.194-4.924-14.391-.488-.53-1.356-.395-1.737-.009l-.011.003c-6.341 3.135-9.711 8.565-9.303 14.468-4.104-3.341-11.875-8.206-12.813-1.963-1.178 7.851 4.556 15.09 13.02 18.113.283.1.554.09.791.014 14.307 4.49 28.718-6.51 23.853-19.093.332-.574-.189-1.442-1.123-1.199z" style="fill:var(--color3, #8e5c6a)"/>
    </symbol>
    <symbol id="icon-line-light" viewBox="0 0 196 32">
      <path fill="#f2e8d4" d="M195.001 20.969c-5.922 0-8.931-.075-11.843-.147a411.498 411.498 0 0 0-11.902-.148c-5.952 0-8.982.126-11.908.25-.278-.105-.587-.11-.84.035-2.673.11-5.642.213-10.998.213l-1.431-.002c.053-.29-.073-.589-.486-.766-3.449-1.473-6.969-2.826-10.418-4.299-.918-.392-1.8.388-1.366 1.145.734 1.28 1.538 2.53 2.296 3.8l-.441-.01c-2.924-.064-5.949-.131-11.897-.131-.552 0-.999.375-.999.837s.447.837.999.837c5.922 0 8.933.067 11.844.131 2.925.064 5.949.131 11.899.131 4.628 0 7.488-.077 9.907-.168-.534.967-1.067 1.935-1.603 2.902-.355.644.231 1.425 1.128 1.23 3.983-.868 7.926-1.911 11.365-3.857.278-.157.411-.373.442-.595a387.51 387.51 0 0 1 2.507-.008c5.922 0 8.931.075 11.843.147 2.926.073 5.951.148 11.902.148.553 0 .999-.375.999-.837s-.446-.837-.999-.837zM74.712 20.614c-6.113 0-9.221-.156-12.227-.306a209.986 209.986 0 0 0-11.434-.307c.401-1.305.535-2.661 1.047-3.945.328-.82-.983-1.371-1.669-.815-1.848 1.501-3.43 3.21-5.246 4.736-3.11-.03-5.228-.087-7.298-.143-3.028-.082-6.159-.167-12.319-.167-6.175 0-9.314.172-12.35.337-3.004.164-6.109.334-12.219.334-.552 0-.999.375-.999.837s.446.837.999.837c6.175 0 9.314-.172 12.35-.337 3.004-.164 6.109-.334 12.219-.334 6.128 0 9.242.085 12.254.165 2.131.058 4.316.116 7.569.146.128.001.259.003.389.003 1.274.01 2.705.017 4.359.017 5.01 0 8.001.105 10.571.225 2.184 1.639 4.31 3.332 6.495 4.97.603.452 1.754.176 1.704-.592-.075-1.147-.012-2.297-.087-3.444a.772.772 0 0 0-.371-.612c1.713.042 3.728.068 6.258.068.552 0 .999-.375.999-.837.002-.463-.444-.838-.997-.838zM115.617 10.685c-3.012.784-5.648 2.18-7.753 4.056.606-5.156-1.062-10.194-4.924-14.391-.488-.53-1.356-.395-1.737-.009l-.011.003c-6.341 3.135-9.711 8.565-9.303 14.468-4.104-3.341-11.875-8.206-12.813-1.963-1.178 7.851 4.556 15.09 13.02 18.113.283.1.554.09.791.014 14.307 4.49 28.718-6.51 23.853-19.093.332-.574-.189-1.442-1.123-1.199z" style="fill:var(--color4, #f2e8d4)"/>
    </symbol>
    <symbol id="icon-menu" viewBox="0 0 32 32">
      <path fill="#fff" d="M4 24v-2.667h24V24H4zm0-6.667v-2.667h24v2.667H4zm0-6.666V8h24v2.667H4z" style="fill:var(--color2, #fff)"/>
    </symbol>
  </defs>
</svg>
